<svg id="svg" version="1.1" xmlns="http://www.w3.org/2000/svg" xmlns:xlink="http://www.w3.org/1999/xlink" width="400" height="86.16666666666667" viewBox="0, 0, 400,86.16666666666667"><g id="svgg"><path id="path0" d="M18.419 16.777 C 12.598 18.024,7.799 22.873,6.593 28.726 C 6.193 30.666,6.200 56.865,6.600 58.810 C 7.807 64.666,12.690 69.546,18.535 70.738 C 19.637 70.963,21.634 71.000,32.576 71.000 L 45.333 71.000 45.333 66.340 L 45.333 61.681 33.125 61.632 C 21.085 61.584,20.906 61.578,20.152 61.230 C 19.151 60.767,18.225 59.824,17.733 58.767 L 17.337 57.917 17.335 43.735 L 17.333 29.553 17.843 28.533 C 18.378 27.463,19.168 26.707,20.277 26.206 C 20.873 25.936,22.542 25.914,44.792 25.872 L 68.667 25.827 68.667 21.163 L 68.667 16.500 44.125 16.514 C 23.002 16.525,19.421 16.562,18.419 16.777 M100.000 30.523 C 97.704 30.904,95.602 32.489,94.536 34.645 L 93.917 35.899 93.868 43.387 C 93.810 52.501,93.848 52.691,96.160 54.897 C 98.421 57.053,98.130 57.019,113.509 56.963 L 126.417 56.917 127.381 56.528 C 130.649 55.208,131.662 53.046,131.665 47.375 L 131.667 43.667 128.917 43.667 L 126.167 43.667 126.167 47.183 C 126.167 52.812,127.651 52.239,112.917 52.293 C 99.825 52.341,100.407 52.385,99.595 51.280 C 99.105 50.612,98.964 37.394,99.436 36.399 C 100.019 35.170,98.812 35.259,116.076 35.167 L 131.583 35.083 131.583 32.750 L 131.583 30.417 116.250 30.394 C 107.684 30.381,100.512 30.438,100.000 30.523 M135.412 30.537 C 135.367 30.654,135.350 36.637,135.374 43.833 L 135.417 56.917 138.126 56.962 L 140.835 57.008 140.793 43.712 L 140.750 30.417 138.121 30.371 C 136.110 30.336,135.474 30.375,135.412 30.537 M144.615 30.440 C 144.412 30.644,144.480 50.056,144.688 51.033 C 145.284 53.840,147.667 56.225,150.467 56.814 C 151.080 56.943,156.079 57.000,166.842 57.000 L 182.333 57.000 182.333 54.669 L 182.333 52.338 166.875 52.294 C 151.711 52.251,151.408 52.244,150.974 51.917 C 150.049 51.219,150.090 51.691,150.000 40.667 L 149.917 30.417 147.324 30.371 C 145.897 30.346,144.679 30.377,144.615 30.440 M186.278 30.444 C 186.217 30.506,186.167 36.507,186.167 43.782 L 186.167 57.008 202.125 56.962 C 217.103 56.919,218.135 56.898,218.921 56.612 C 220.838 55.914,222.740 54.089,223.518 52.199 C 223.976 51.088,224.230 38.328,223.833 36.413 C 223.204 33.386,220.617 30.947,217.565 30.506 C 216.283 30.321,186.460 30.262,186.278 30.444 M233.946 30.515 C 231.072 30.937,228.391 33.559,227.835 36.493 C 227.613 37.662,227.615 49.681,227.837 50.852 C 228.400 53.823,230.822 56.267,233.757 56.825 C 234.464 56.960,239.182 57.000,250.167 56.965 L 265.583 56.917 265.583 54.667 L 265.583 52.417 250.167 52.333 C 233.799 52.245,234.475 52.282,233.667 51.419 C 233.267 50.992,233.248 50.874,233.196 48.487 L 233.143 46.000 247.488 46.000 L 261.833 46.000 261.833 43.667 L 261.833 41.333 247.500 41.333 L 233.167 41.333 233.167 39.075 C 233.167 36.693,233.275 36.239,234.000 35.583 C 234.361 35.256,234.669 35.248,249.976 35.167 L 265.583 35.083 265.583 32.750 L 265.583 30.417 250.250 30.395 C 241.817 30.383,234.480 30.437,233.946 30.515 M269.456 30.433 C 269.389 30.500,269.333 36.507,269.333 43.782 L 269.333 57.008 272.042 56.962 L 274.750 56.917 274.793 46.042 L 274.836 35.167 276.587 35.167 C 279.335 35.167,278.807 34.249,283.144 46.583 L 286.776 56.917 289.005 56.917 L 291.233 56.917 294.831 46.750 C 299.357 33.959,298.659 35.167,301.522 35.167 L 303.333 35.167 303.333 46.083 L 303.333 57.000 306.001 57.000 L 308.669 57.000 308.626 43.708 L 308.583 30.417 303.167 30.417 C 294.644 30.417,295.190 29.936,291.479 40.698 C 290.161 44.519,289.037 47.594,288.980 47.531 C 288.924 47.468,287.807 44.342,286.499 40.583 C 283.482 31.914,283.440 31.834,281.348 30.853 L 280.417 30.417 274.998 30.363 C 272.018 30.334,269.524 30.365,269.456 30.433 M340.266 30.508 C 338.050 30.883,338.315 30.649,324.875 44.060 C 317.755 51.164,312.500 56.533,312.500 56.704 C 312.500 56.979,312.762 57.000,316.126 57.000 L 319.751 57.000 330.167 46.567 C 342.805 33.908,341.238 35.167,344.357 35.167 L 346.831 35.167 346.874 46.042 L 346.917 56.917 349.626 56.962 L 352.335 57.008 352.293 43.712 L 352.250 30.417 346.667 30.394 C 343.596 30.381,340.715 30.432,340.266 30.508 M356.077 30.542 C 356.033 30.656,356.017 36.637,356.040 43.833 L 356.083 56.917 358.792 56.962 L 361.500 57.008 361.500 52.671 L 361.500 48.333 372.638 48.333 L 383.776 48.333 385.833 52.667 L 387.890 57.000 390.769 57.000 C 392.519 57.000,393.688 56.934,393.751 56.832 C 393.808 56.740,392.912 54.678,391.760 52.249 C 389.347 47.159,389.491 47.660,390.303 47.204 C 392.947 45.718,393.887 43.501,393.805 38.944 L 393.750 35.898 393.130 34.645 C 392.032 32.423,389.959 30.901,387.500 30.509 C 385.811 30.239,356.180 30.270,356.077 30.542 M217.794 35.737 L 218.417 36.307 218.464 43.501 C 218.509 50.500,218.501 50.709,218.169 51.246 C 217.468 52.380,218.069 52.333,204.100 52.333 L 191.500 52.333 191.500 43.750 L 191.500 35.167 204.336 35.167 L 217.172 35.167 217.794 35.737 M387.430 35.481 C 388.369 36.053,388.530 36.689,388.470 39.580 C 388.377 44.036,389.682 43.666,374.042 43.666 L 361.500 43.667 361.500 39.417 L 361.500 35.167 374.208 35.167 C 386.348 35.168,386.940 35.182,387.430 35.481 " stroke="none" fill="#f4fcec" fill-rule="evenodd"></path><path id="path1" d="M73.246 16.539 C 73.203 16.655,73.149 26.087,73.126 37.500 L 73.083 58.250 72.722 58.924 C 72.524 59.295,72.013 59.919,71.587 60.312 C 70.136 61.650,70.787 61.577,59.708 61.634 L 49.833 61.684 49.833 66.348 L 49.833 71.013 61.458 70.963 L 73.083 70.914 74.250 70.521 C 79.228 68.845,82.862 64.947,83.902 60.167 C 84.148 59.040,84.170 56.812,84.129 37.667 L 84.083 16.417 78.704 16.373 C 74.489 16.338,73.308 16.374,73.246 16.539 " stroke="none" fill="#ccf40c" fill-rule="evenodd"></path><path id="path2" d="" stroke="none" fill="#e0f8f0" fill-rule="evenodd"></path><path id="path3" d="" stroke="none" fill="#e0f8f0" fill-rule="evenodd"></path><path id="path4" d="" stroke="none" fill="#e0f8f0" fill-rule="evenodd"></path></g></svg>