<svg xmlns="http://www.w3.org/2000/svg" viewBox="0 0 2363 2515.14"><defs><style>.cls-1{fill:#cdf30e;}.cls-2{fill:#f3ffee;}.cls-3{fill:none;}</style></defs><g id="Camada_2" data-name="Camada 2"><path d="M112,2285.3A26.83,26.83,0,0,1,132,2277H412.2v-55.88H132q-38.91,0-66.18,27.28T38.5,2314.55v139.87q0,38.91,27.29,66.18T132,2547.89H271.7V2492H132a26.87,26.87,0,0,1-19.94-8.34,27.27,27.27,0,0,1-8.17-19.77V2305.07A27.28,27.28,0,0,1,112,2285.3Z" transform="translate(-0.5 -32.75)"/><path class="cls-1" d="M505.5,2223.42V2463.9q0,34.65-24.67,59.32t-59.65,24.67H299.63V2492H412a28.46,28.46,0,0,0,28.11-28.11V2223.42a2.87,2.87,0,0,1,.82-2.12,2.5,2.5,0,0,1,1.8-.81h59.8a2.8,2.8,0,0,1,2.94,2.93Z" transform="translate(-0.5 -32.75)"/><rect class="cls-3" x="439.41" y="2188.33" width="0.18" height="55.88"/><path d="M744.66,2436.33a13.8,13.8,0,0,0,13.63-13.63v-37.09a1.39,1.39,0,0,1,.4-1,1.2,1.2,0,0,1,.87-.39h29a1.4,1.4,0,0,1,1,.39,1.39,1.39,0,0,1,.4,1v37.09a40.87,40.87,0,0,1-40.89,40.74H608.83a45.19,45.19,0,0,1-45.33-45.34v-67.83a45.17,45.17,0,0,1,45.33-45.33H788.56a1.37,1.37,0,0,1,1,.4,1.36,1.36,0,0,1,.4,1v24.4a1.22,1.22,0,0,1-.4.88,1.4,1.4,0,0,1-1,.39H608.83a13,13,0,0,0-9.67,4,13.26,13.26,0,0,0-4,9.59v77a13.23,13.23,0,0,0,4,9.59,13,13,0,0,0,9.67,4Z" transform="translate(-0.5 -32.75)"/><path d="M844.89,2462.17a1.22,1.22,0,0,1-.39.87,1.43,1.43,0,0,1-1,.4h-29a1.22,1.22,0,0,1-.87-.4,1.23,1.23,0,0,1-.4-.87v-155.8a1.39,1.39,0,0,1,.4-1,1.18,1.18,0,0,1,.87-.4h29a1.36,1.36,0,0,1,1.42,1.43Z" transform="translate(-0.5 -32.75)"/><path d="M1094.43,2462.17a1.23,1.23,0,0,1-.4.87,1.22,1.22,0,0,1-.87.4H913.43a45.19,45.19,0,0,1-45.33-45.34V2306.37a1.39,1.39,0,0,1,.39-1,1.21,1.21,0,0,1,.87-.4h29a1.37,1.37,0,0,1,1.43,1.43V2422.7a13.23,13.23,0,0,0,4,9.59,13,13,0,0,0,9.67,4h179.73a1.38,1.38,0,0,1,1.27,1.27Z" transform="translate(-0.5 -32.75)"/><path d="M1298.63,2304.94a45.17,45.17,0,0,1,45.33,45.33v67.83a45.19,45.19,0,0,1-45.33,45.34H1118.9a1.22,1.22,0,0,1-.87-.4,1.37,1.37,0,0,1-.4-1V2306.37a1.36,1.36,0,0,1,.4-1,1.18,1.18,0,0,1,.87-.4Zm13.63,40.73a13.26,13.26,0,0,0-4-9.59,13,13,0,0,0-9.67-4h-149.3v104.29h149.3a13,13,0,0,0,9.67-4,13.23,13.23,0,0,0,4-9.59Z" transform="translate(-0.5 -32.75)"/><path d="M1398.87,2370.56h170.7A1.34,1.34,0,0,1,1571,2372v24.41a1.36,1.36,0,0,1-1.42,1.43h-170.7v24.88a13.19,13.19,0,0,0,4,9.59,13,13,0,0,0,9.67,4h179.73a1.41,1.41,0,0,1,1,.4,1.22,1.22,0,0,1,.4.87V2462a1.37,1.37,0,0,1-1.43,1.43H1412.5a45.19,45.19,0,0,1-45.33-45.34v-67.83a45.17,45.17,0,0,1,45.33-45.33h179.73a1.37,1.37,0,0,1,1,.4,1.39,1.39,0,0,1,.4,1v24.4a1.26,1.26,0,0,1-.4.88,1.4,1.4,0,0,1-1,.39H1412.5a13,13,0,0,0-9.67,4,13.22,13.22,0,0,0-4,9.59Z" transform="translate(-0.5 -32.75)"/><path d="M1852.39,2462a1.41,1.41,0,0,1-.4,1,1.43,1.43,0,0,1-1,.4h-29a1.25,1.25,0,0,1-.87-.4,1.4,1.4,0,0,1-.39-1V2332h-17.44q-8.71,0-12.84,9.2l-42.79,121.24a1.24,1.24,0,0,1-1.27,1h-23.62a1.42,1.42,0,0,1-1.26-1l-42.64-121.24q-4.27-9.19-12.84-9.2h-17.43v130a1.37,1.37,0,0,1-.4,1,1.41,1.41,0,0,1-1,.4h-29a1.22,1.22,0,0,1-.87-.4,1.37,1.37,0,0,1-.4-1V2306.37a1.36,1.36,0,0,1,.4-1,1.18,1.18,0,0,1,.87-.4h58.32a30.78,30.78,0,0,1,3.18.16,29.47,29.47,0,0,1,15.77,6.81,32.42,32.42,0,0,1,9.74,14.43l29.48,84.32,29.33-84.32a34.13,34.13,0,0,1,9.9-14.51,28.18,28.18,0,0,1,15.77-6.73,29.11,29.11,0,0,1,3-.16H1851a1.37,1.37,0,0,1,1.43,1.43Z" transform="translate(-0.5 -32.75)"/><path d="M2020.45,2317q12.69-12,28.85-12h63.24a1.36,1.36,0,0,1,1.42,1.43v155.8a1.22,1.22,0,0,1-.39.87,1.43,1.43,0,0,1-1,.4h-29a1.25,1.25,0,0,1-.87-.4,1.22,1.22,0,0,1-.39-.87v-130H2055.8a13.3,13.3,0,0,0-9.51,4l-127.75,127a1.72,1.72,0,0,1-1,.32h-40.42a1.25,1.25,0,0,1-1.27-.8,1.23,1.23,0,0,1,.32-1.42Z" transform="translate(-0.5 -32.75)"/><path d="M2363.5,2366.12a43.93,43.93,0,0,1-7.29,24.8,44.53,44.53,0,0,1-19.34,16.41l.64,1.27,25.2,52.93a1.83,1.83,0,0,1-.16,1.27,1.14,1.14,0,0,1-1.11.64h-32.17a1.43,1.43,0,0,1-1.27-.8l-24.41-51.19H2168.87v50.72a1.23,1.23,0,0,1-.4.87,1.41,1.41,0,0,1-1,.4h-29a1.22,1.22,0,0,1-.87-.4,1.2,1.2,0,0,1-.4-.87v-155.8a1.36,1.36,0,0,1,.4-1,1.18,1.18,0,0,1,.87-.4h179.89a45.17,45.17,0,0,1,45.17,45.33Zm-194.63,18.07h149.46a12.94,12.94,0,0,0,9.51-4,13.14,13.14,0,0,0,4-9.66v-24.89a13.52,13.52,0,0,0-13.47-13.47H2168.87Z" transform="translate(-0.5 -32.75)"/></g></svg>